<?xml version="1.0" encoding="iso-8859-1"?>
<!-- Generator: Adobe Illustrator 19.0.0, SVG Export Plug-In . SVG Version: 6.00 Build 0)  -->
<svg version="1.1" id="Capa_1" xmlns="http://www.w3.org/2000/svg" xmlns:xlink="http://www.w3.org/1999/xlink" x="0px" y="0px"
	 viewBox="0 0 512 512" style="enable-background:new 0 0 512 512;" xml:space="preserve">
<g>
	<g>
		<path d="M449.142,279.639H239.614c-14.812,0-26.863,12.051-26.863,26.862v92.407h32.235v-87.035h198.783v87.035h32.235v-92.407
			C476.004,291.69,463.954,279.639,449.142,279.639z"/>
	</g>
</g>
<g>
	<g>
		<path d="M481.377,381.717H207.379c-8.902,0-16.117,7.215-16.117,16.118c0,8.902,7.215,16.117,16.117,16.117h273.998
			c8.902,0,16.118-7.215,16.118-16.117C497.494,388.932,490.279,381.717,481.377,381.717z"/>
	</g>
</g>
<g>
	<g>
		<rect x="433.024" y="397.834" width="32.235" height="64.47"/>
	</g>
</g>
<g>
	<g>
		<rect x="223.496" y="397.834" width="32.235" height="64.47"/>
	</g>
</g>
<g>
	<g>
		<path d="M105.301,33.578c-55.734,0-99.391,72.448-99.391,164.936S49.567,363.45,105.301,363.45s99.391-72.448,99.391-164.936
			S161.036,33.578,105.301,33.578z M105.301,331.215c-31.762,0-67.156-54.493-67.156-132.701
			c0-78.202,35.394-132.701,67.156-132.701s67.156,54.499,67.156,132.701S137.063,331.215,105.301,331.215z"/>
	</g>
</g>
<g>
	<g>
		<path d="M105.301,223.765c-8.902,0-16.117,7.215-16.117,16.117v222.422c0,8.902,7.215,16.117,16.117,16.117
			s16.118-7.215,16.118-16.117V239.882C121.419,230.98,114.203,223.765,105.301,223.765z"/>
	</g>
</g>
<g>
	<g>
		<path d="M495.882,446.187H16.117C7.215,446.187,0,453.402,0,462.304c0,8.902,7.215,16.117,16.117,16.117h479.765
			c8.902,0,16.118-7.215,16.118-16.117C512,453.402,504.785,446.187,495.882,446.187z"/>
	</g>
</g>
<g>
</g>
<g>
</g>
<g>
</g>
<g>
</g>
<g>
</g>
<g>
</g>
<g>
</g>
<g>
</g>
<g>
</g>
<g>
</g>
<g>
</g>
<g>
</g>
<g>
</g>
<g>
</g>
<g>
</g>
</svg>
